<?xml version="1.0" standalone="no"?><!DOCTYPE svg PUBLIC "-//W3C//DTD SVG 1.1//EN" "http://www.w3.org/Graphics/SVG/1.1/DTD/svg11.dtd"><svg t="1503559890298" class="icon" style="" viewBox="0 0 1024 1024" version="1.1" xmlns="http://www.w3.org/2000/svg" p-id="6979" xmlns:xlink="http://www.w3.org/1999/xlink" width="200" height="200"><defs><style type="text/css"></style></defs><path d="M512 566.371c-66.021 0-120.391-54.371-120.391-124.276s54.371-124.276 120.391-124.276 120.391 54.371 120.391 124.276-54.371 124.276-120.391 124.276zM512 360.539c-42.72 0-81.556 38.836-81.556 85.439s34.953 85.439 81.556 85.439 81.556-38.836 81.556-85.439-38.836-85.439-81.556-85.439z" p-id="6980"></path><path d="M512 838.224c-11.651 0-23.301-3.884-31.069-11.651-66.021-69.905-225.249-252.435-225.249-372.827 0-147.578 112.625-271.853 252.435-271.853s252.435 120.391 252.435 271.853c0 120.391-155.344 299.039-225.249 372.827 0 3.884-11.651 11.651-23.301 11.651zM512 224.612c-116.509 0-213.599 100.974-213.599 229.134 0 81.556 100.974 221.366 201.948 330.107 7.767 7.767 15.534 7.767 23.301 0 97.090-108.741 198.064-248.551 198.064-330.107 3.884-128.159-93.206-229.134-209.715-229.134z" p-id="6981"></path></svg>