<?xml version="1.0" standalone="no"?><!DOCTYPE svg PUBLIC "-//W3C//DTD SVG 1.1//EN" "http://www.w3.org/Graphics/SVG/1.1/DTD/svg11.dtd"><svg t="1503559705824" class="icon" style="" viewBox="0 0 1024 1024" version="1.1" xmlns="http://www.w3.org/2000/svg" p-id="1396" xmlns:xlink="http://www.w3.org/1999/xlink" width="200" height="200"><defs><style type="text/css"></style></defs><path d="M512 51.2c-256 0-460.8 204.8-460.8 460.8 0 204.8 133.12 378.88 317.44 435.2 25.6 5.12 30.72-10.24 30.72-20.48v-76.8c-128 25.6-153.6-61.44-153.6-61.44-20.48-51.2-51.2-66.56-51.2-66.56-40.96-30.72 5.12-30.72 5.12-30.72 46.08 5.12 71.68 46.08 71.68 46.08 40.96 71.68 107.52 51.2 133.12 40.96 5.12-30.72 15.36-51.2 30.72-61.44-102.4-10.24-209.92-51.2-209.92-225.28 0-51.2 15.36-92.16 46.08-122.88-10.24-15.36-25.6-61.44 0-128 0 0 40.96-10.24 128 46.08 35.84-10.24 71.68-15.36 112.64-15.36s76.8 5.12 112.64 15.36c87.04-61.44 128-46.08 128-46.08 25.6 61.44 10.24 112.64 5.12 122.88 30.72 30.72 46.08 71.68 46.08 122.88 0 179.2-107.52 215.04-209.92 225.28 15.36 15.36 30.72 40.96 30.72 87.04v128c0 10.24 10.24 25.6 30.72 20.48C839.68 890.88 972.8 716.8 972.8 512c0-256-204.8-460.8-460.8-460.8z" p-id="1397"></path></svg>